<?xml version="1.0" standalone="no"?>
<!DOCTYPE svg PUBLIC "-//W3C//DTD SVG 1.1//EN" "http://www.w3.org/Graphics/SVG/1.1/DTD/svg11.dtd" >
<svg xmlns="http://www.w3.org/2000/svg">
<metadata>Generated by IcoMoon</metadata>
<defs>
<font id="icomoon" horiz-adv-x="1024">
<font-face units-per-em="1024" ascent="960" descent="-64" />
<missing-glyph horiz-adv-x="1024" />
<glyph unicode="&#x20;" horiz-adv-x="512" d="" />
<glyph unicode="&#xe900;" glyph-name="Add" d="M469.333 490.667v341.333h85.333v-341.333h341.333v-85.333h-341.333v-341.333h-85.333v341.333h-341.333v85.333h341.333z" />
<glyph unicode="&#xe901;" glyph-name="Arrow" d="M606.817 454.974c-109.691 104.080-215.914 204.8-322 305.625-16.002 15.202-32.058 30.379-47.022 46.474-33.014 35.577-31.703 88.458 2.239 121.803 37.765 37.048 93.088 41.564 132.082 10.66 5.489-4.332 10.868-8.901 15.892-13.706 161.901-155.359 323.721-310.797 485.567-466.209 1.529-1.497 2.976-3.046 5.188-5.33-2.512-2.599-4.888-5.225-7.427-7.667-161.055-155.412-322.219-310.745-483.137-466.288-22.228-21.504-47.213-35.998-79.79-34.37-40.66 2.048-69.277 22.712-85.961 57.003-16.247 33.398-10.049 65.851 12.889 95.127 4.915 6.275 10.95 11.789 16.739 17.408 112.067 108.544 224.188 217.062 336.391 325.501 4.205 4.096 9.421 7.247 18.35 13.968z" />
<glyph unicode="&#xe902;" glyph-name="bitcoin" d="M847.697 415.199l-0.383 0.711-0.065 0.118c-0.232 0.716-0.406 1.464-0.67 2.238l-0.195 0.361-0.065 0.118c-8.085 27.005-24.114 50.957-46.005 68.746l-0.032 0.060c-0.647 0.494-1.327 1.045-1.977 1.536l-0.895 0.665-0.647 0.491-0.278 0.232-0.617 0.433-0.278 0.232-0.617 0.433-0.278 0.232-0.647 0.491-0.339 0.202-0.647 0.491-0.339 0.202-0.696 0.463-0.339 0.202-0.411 0.621-0.369 0.259-0.696 0.463-0.369 0.259-0.708 0.463-0.369 0.259-0.696 0.463-1.478 1.037-0.798 0.489-0.369 0.259-0.798 0.489-0.369 0.259-0.798 0.489-0.369 0.259-0.798 0.489-0.429 0.232-0.798 0.489-1.717 0.927-0.891 0.514-0.429 0.232-0.891 0.514-0.429 0.232-0.891 0.514-0.464 0.287-0.891 0.514-0.464 0.287-0.949 0.484-0.464 0.287-0.949 0.484-0.643 0.343-0.032 0.060c-0.464 0.287-0.949 0.484-1.41 0.772-19.694 10.109-40.957 16.819-62.891 19.847 6.151 6.603 11.784 13.668 16.849 21.135l0.807 1.198 0.060 0.032 0.373 0.584 0.489 0.797 0.26 0.368 0.489 0.797 0.26 0.368 0.489 0.797 0.26 0.368 0.489 0.797 0.26 0.368 0.489 0.797 0.26 0.368 0.429 0.767 0.26 0.368 0.429 0.767 0.202 0.338 0.429 0.767 0.202 0.338 0.429 0.767 0.202 0.338 0.369 0.734 0.202 0.338 0.369 0.734 0.202 0.338 0.369 0.734 0.202 0.338 0.399 0.674 0.202 0.338 0.401 0.674 0.202 0.338 0.343 0.642 0.202 0.338 0.343 0.642 0.142 0.306 0.343 0.642 0.142 0.306 0.343 0.642 0.142 0.306 0.343 0.642 1.415 3.058 0.311 0.695 0.425 0.927c0.311 0.695 0.561 1.372 0.872 2.074l0.060 0.032c9.438 23.234 11.651 48.768 6.349 73.276l-0.032 0.060-0.065 0.118-0.195 0.361c-0.142 0.695-0.283 1.376-0.483 2.034v0.151l-0.065 0.12-0.288 0.533c-0.209 0.957-0.42 1.914-0.721 2.898-0.209 0.957-0.51 1.942-0.779 2.868l-0.35 0.651-0.065 0.118c-0.202 0.656-0.401 1.314-0.603 1.969l-0.195 0.361-0.030 0.060c-7.18 24.032-21.441 45.347-40.925 61.167l-0.030 0.060c-0.557 0.463-1.174 0.899-1.731 1.362l-0.77 0.579-0.617 0.433-0.278 0.232-0.524 0.405-0.278 0.232-0.524 0.405-0.278 0.232-0.585 0.373-0.278 0.232-0.617 0.433-0.278 0.232-0.617 0.433-0.278 0.232-0.617 0.433-0.339 0.202-0.617 0.433-0.339 0.202-0.617 0.433-4.394 2.611-0.708 0.463-0.339 0.202-0.708 0.463-0.339 0.202-0.768 0.429-0.339 0.202-0.766 0.429-0.369 0.259-0.768 0.429-0.369 0.259-0.766 0.429-0.369 0.259-0.798 0.489-0.429 0.232-0.798 0.489-2.575 1.39-0.612 0.283-0.032 0.060-1.288 0.695c-37.614 19.525-85.401 25.403-133.48 13.084l-12.506-3.207-31.634 123.029-73.307-18.767 31.529-122.543-58.66-15.102-31.55 122.151-73.307-18.767 31.529-122.543-151.178-38.853 20.115-78.081 60.915 15.625c9.694 2.496 19.984 1.038 28.601-4.052s14.852-13.394 17.332-23.081l84.552-328.581c3.447-13.437-4.648-27.126-18.095-30.597l-53.375-13.714 3.136-92.863 150.999 38.755 31.935-122.32 73.27 18.83-31.55 122.603 58.641 15.016 31.562-122.601 73.27 18.83-31.668 123.080c12.416 3.244 23.096 5.996 30.485 7.905 54.182 13.918 97.998 45.644 124.511 85.205l0.895 1.321 0.060 0.032 0.434 0.616 1.726 2.78 0.515 0.89 0.288 0.463 0.515 0.89 0.232 0.429 0.515 0.89 0.232 0.429 0.515 0.89 1.624 3 0.489 0.797 0.232 0.429 0.489 0.797 0.232 0.429 0.429 0.767 0.232 0.429 0.429 0.765 0.232 0.429 0.429 0.765 0.169 0.396 0.429 0.765 0.169 0.396 0.369 0.734 0.202 0.338 0.369 0.734 0.202 0.338 0.369 0.734 0.202 0.338 0.369 0.734 0.202 0.338 0.369 0.734 0.202 0.338 0.369 0.734 0.202 0.338 0.311 0.695 0.202 0.338 0.311 0.695 0.142 0.306 0.339 0.792 0.464 1.008c0.339 0.792 0.696 1.527 0.986 2.289l0.028 0.090c10.604 26.137 13.099 54.853 7.159 82.423l-0.26 0.482c-0.174 0.748-0.346 1.494-0.52 2.243v0.151l-0.422 0.783-0.128 0.232c-0.274 1.075-0.487 2.183-0.821 3.227-0.111 0.623-0.267 1.763-0.334 3.014zM416.991 635.009c12.506 3.207 64.216 16.177 81.267 20.605 27.107 6.93 53.821 4.24 74.676-5.792l0.696-0.31 0.306-0.141 0.429-0.232 0.213-0.114 0.429-0.232 0.213-0.114 0.429-0.232 0.213-0.114 0.429-0.232 0.213-0.114 0.429-0.232 0.213-0.114 0.429-0.232 0.213-0.114 0.429-0.232 0.213-0.114 0.429-0.232 0.213-0.114 0.429-0.232 0.213-0.114 0.369-0.259 0.213-0.114 0.369-0.259 0.213-0.114 0.369-0.259 0.213-0.114 0.339-0.202 0.213-0.114 0.339-0.202 0.213-0.114 0.339-0.202 0.213-0.114 0.339-0.202 0.213-0.114 0.339-0.202 0.155-0.146 0.339-0.202 0.123-0.086 0.339-0.202 0.123-0.086 0.339-0.202 0.123-0.086 0.339-0.202 0.123-0.086 0.278-0.232 0.123-0.086 0.339-0.202 0.464-0.287c0.339-0.202 0.647-0.494 0.986-0.695 10.676-8.049 18.521-19.273 22.405-32.057l0.095-0.178c0.1-0.329 0.232-0.716 0.332-1.045l0.032-0.060 0.193-0.354c0.137-0.538 0.302-0.985 0.438-1.522 0.149-0.549 0.247-1.11 0.292-1.677l0.193-0.354 0.032-0.060c0.052-0.367 0.144-0.728 0.274-1.075l0.095-0.178c2.742-13.066 1.28-26.663-4.176-38.85l-0.48-1.098-0.255-0.519-0.202-0.338-0.056-0.183-0.142-0.306-0.056-0.183-0.202-0.338-0.056-0.183-0.202-0.338-0.056-0.183-0.202-0.338-0.056-0.183-0.202-0.338-0.056-0.183-0.202-0.338-0.056-0.183-0.202-0.338-0.114-0.213-0.202-0.338-0.114-0.213-0.202-0.338-0.114-0.213-0.202-0.338-0.114-0.213-0.26-0.368-0.114-0.213-0.26-0.368-0.114-0.213-0.26-0.368-0.114-0.213-0.26-0.368-0.114-0.213-0.26-0.368-0.114-0.213-0.26-0.368-0.114-0.213-0.26-0.368-0.114-0.213-0.26-0.368-0.114-0.213-0.32-0.401-0.114-0.213-0.32-0.401-0.114-0.213-0.32-0.401-0.114-0.213-0.32-0.401-0.232-0.278-0.434-0.616c-13.481-18.865-35.573-34.105-62.68-41.035-17.083-4.37-68.668-17.878-81.162-21.084l-38.563 148.887zM703.521 383.105l0.193-0.354 0.032-0.060c0.072-0.419 0.174-0.748 0.246-1.158l0.13-0.241c2.892-14.411 0.814-29.375-5.895-42.456l-0.657-1.193-0.316-0.551-0.232-0.429-0.114-0.213-0.202-0.338-0.114-0.213-0.202-0.338-0.114-0.213-0.26-0.368-0.114-0.213-0.26-0.368-0.114-0.213-0.26-0.368-0.114-0.213-0.26-0.368-0.114-0.213-0.26-0.368-0.114-0.213-0.26-0.368-0.114-0.213-0.26-0.368-0.114-0.213-0.26-0.368-0.114-0.213-0.26-0.368-0.114-0.213-0.32-0.401-0.114-0.213-0.32-0.401-0.114-0.213-0.288-0.463-0.114-0.213-0.288-0.463-0.114-0.213-0.288-0.463-0.174-0.246-0.288-0.463-1.74-2.456-0.35-0.491-0.522-0.737-0.292-0.31-0.552-0.679c-16.371-20.88-42.778-38.056-74.85-46.279-20.227-5.215-81.341-21.179-96.211-24.97l-41.607 161.688c14.847 3.851 76.124 19.217 96.348 24.432 32.074 8.223 63.564 5.89 87.902-4.49l1.19-0.507 0.58-0.232 0.274-0.081 0.52-0.255 0.274-0.081 0.52-0.255 0.274-0.081 0.52-0.255 0.213-0.114 0.52-0.255 0.213-0.114 0.52-0.255 0.213-0.114 0.52-0.255 0.213-0.114 0.429-0.232 0.213-0.114 0.429-0.232 0.213-0.114 0.429-0.232 0.213-0.114 0.429-0.232 0.213-0.114 0.429-0.232 0.213-0.114 0.429-0.232 0.213-0.114 0.429-0.232 0.213-0.114 0.429-0.232 0.213-0.114 0.429-0.232 0.213-0.114 0.369-0.259 0.213-0.114 0.369-0.259 0.213-0.114 0.369-0.259 0.213-0.114 0.369-0.259 0.213-0.114 0.369-0.259 0.213-0.114 0.339-0.202 0.213-0.114 0.369-0.259 0.492-0.348c0.369-0.259 0.798-0.489 1.16-0.748 12.177-8.247 21.211-20.357 25.641-34.369l0.128-0.232c0.132-0.387 0.232-0.716 0.364-1.103l0.032-0.060 0.193-0.354c0.137-0.538 0.274-1.075 0.443-1.673 0.299-0.132 0.348-0.792 0.253-1.608l0.014 0.046z" />
<glyph unicode="&#xe903;" glyph-name="Burgermobile" d="M85.333 960h853.333c47.128 0 85.333-38.205 85.333-85.333s-38.205-85.333-85.333-85.333h-853.333c-47.128 0-85.333 38.205-85.333 85.333s38.205 85.333 85.333 85.333zM85.333 533.333h597.333c47.128 0 85.333-38.205 85.333-85.333s-38.205-85.333-85.333-85.333h-597.333c-47.128 0-85.333 38.205-85.333 85.333s38.205 85.333 85.333 85.333zM85.333 106.667h853.333c47.128 0 85.333-38.205 85.333-85.333s-38.205-85.333-85.333-85.333h-853.333c-47.128 0-85.333 38.205-85.333 85.333s38.205 85.333 85.333 85.333z" />
<glyph unicode="&#xe904;" glyph-name="Checkbox--check" d="M128 960h768c70.692 0 128-57.308 128-128v-768c0-70.692-57.308-128-128-128h-768c-70.692 0-128 57.308-128 128v768c0 70.692 57.308 128 128 128zM264.565 484.483l-93.898-105.134 210.051-230.016 472.615 488.784-92.924 108.55-379.691-392.875-116.153 130.691z" />
<glyph unicode="&#xe905;" glyph-name="Checkbox--uncheck" d="M128 960h768c70.692 0 128-57.308 128-128v-768c0-70.692-57.308-128-128-128h-768c-70.692 0-128 57.308-128 128v768c0 70.692 57.308 128 128 128zM170.667 874.667c-47.128 0-85.333-38.205-85.333-85.333v-682.667c0-47.128 38.205-85.333 85.333-85.333h682.667c47.128 0 85.333 38.205 85.333 85.333v682.667c0 47.128-38.205 85.333-85.333 85.333h-682.667z" />
<glyph unicode="&#xe906;" glyph-name="Checkmark" d="M140.847 511.613l-140.847-140.413 315.077-307.2 708.923 652.8-139.387 144.975-569.536-524.708z" />
<glyph unicode="&#xe907;" glyph-name="Close" d="M512 561.778l398.222 398.222 113.778-113.778-398.222-398.222 398.222-398.222-113.778-113.778-398.222 398.222-398.222-398.222-113.778 113.778 398.222 398.222-398.222 398.222 113.778 113.778 398.222-398.222z" />
<glyph unicode="&#xe908;" glyph-name="Dropdown" d="M0 832l512-768 512 768z" />
<glyph unicode="&#xe909;" glyph-name="Email" d="M0 832h853.333c94.257 0 170.667-76.41 170.667-170.667v-597.333h-853.333c-94.257 0-170.667 76.41-170.667 170.667v597.333zM942.080 642.080v48.32l-430.080-243.84-430.080 243.84v-48.32l430.080-243.84 430.080 243.84z" />
<glyph unicode="&#xe90a;" glyph-name="Exchange" d="M564.663 668.501h11.337c136.623 0 273.246-0.063 409.869 0.099 12.92 0.016 23.748-2.997 31.61-14.487 14.449-21.106 3.77-48.614-21.050-53.168-5.291-0.977-10.797-1.008-16.207-1.012-134.067-0.051-268.135-0.040-402.206-0.040h-15.192c4.157-4.575 6.529-7.323 9.042-9.916 56.633-58.494 113.22-117.032 169.988-175.384 9.356-9.624 15.33-20.177 13.077-34.245-2.038-12.728-8.927-22.087-20.483-26.472-11.77-4.468-23.307-2.558-33.23 5.978-3.176 2.736-6.058 5.852-8.992 8.877-74.492 76.86-149.022 153.681-223.387 230.672-6.667 6.904-13.916 14.064-17.993 22.581-6.368 13.297-3.088 26.44 7.188 37.040 79.929 82.432 159.872 164.839 239.931 247.136 14.211 14.61 34.617 14.8 48.012 1.115 13.176-13.459 12.897-34.961-1.218-49.566-57.924-59.949-115.983-119.761-174.068-179.544-2.425-2.495-5.636-4.171-8.479-6.231 0.816-1.143 1.636-2.285 2.452-3.432zM456.478 227.259h-10.219c-136.294 0-272.587 0.075-408.881-0.115-13.544-0.020-24.276 4.262-31.809 16.132-12.468 19.651-3.1 45.138 19.077 50.998 5.483 1.447 11.357 1.811 17.050 1.819 134.056 0.095 268.116 0.071 402.175 0.071h13.885c-3.471 3.875-5.559 6.37-7.812 8.699-57.296 59.19-114.523 118.452-171.999 177.46-10.724 11.012-15.502 23.411-11.023 38.424 6.774 22.703 33.878 30.651 52.269 15.681 1.996-1.625 3.801-3.519 5.605-5.377 78.599-80.992 157.202-161.985 235.766-243.012 15.95-16.456 16.207-36.364 0.824-52.227-78.565-81.028-157.183-162.004-235.667-243.111-10.406-10.755-21.832-17.093-36.882-12.542-22.027 6.654-30.893 33.355-17.368 52.54 2.613 3.701 5.793 7.010 8.943 10.264 56.193 58.004 112.408 115.985 168.673 173.914 2.701 2.784 5.893 5.065 8.855 7.58l-1.464 2.803z" />
<glyph unicode="&#xe90b;" glyph-name="Facebook" d="M405.333 590.222h-106.667v-142.222h106.667v-426.667h177.778v426.667h129.493l12.729 142.222h-142.222v59.271c0 33.956 6.827 47.396 39.644 47.396h102.578v177.778h-135.396c-127.858 0-184.604-56.284-184.604-164.089v-120.356z" />
<glyph unicode="&#xe90c;" glyph-name="Instagram" d="M512 874.667c115.876 0 130.418-0.498 175.964-2.596 155.093-7.111 241.173-93.369 248.142-248.178 2.062-45.511 2.56-60.018 2.56-175.893s-0.498-130.418-2.596-175.929c-7.004-155.093-93.333-241.067-248.142-248.178-45.511-2.062-60.053-2.56-175.929-2.56s-130.382 0.498-175.929 2.56c-155.093 7.111-241.067 93.227-248.178 248.178-2.062 45.511-2.56 60.053-2.56 175.929s0.498 130.382 2.596 175.929c7.111 155.093 93.227 241.067 248.178 248.178 45.511 2.062 60.018 2.56 175.893 2.56zM512 667.093c-120.996 0-219.093-98.098-219.093-219.093s98.098-219.129 219.093-219.129c120.996 0 219.093 98.098 219.093 219.129 0 120.996-98.098 219.093-219.093 219.093zM512 305.778c-78.542 0-142.222 63.644-142.222 142.222 0 78.542 63.68 142.222 142.222 142.222s142.222-63.68 142.222-142.222c0-78.578-63.68-142.222-142.222-142.222zM739.769 726.933c-28.302 0-51.236-22.933-51.236-51.2s22.933-51.2 51.236-51.2c28.267 0 51.164 22.933 51.164 51.2s-22.898 51.2-51.164 51.2z" />
<glyph unicode="&#xe90d;" glyph-name="Key" d="M615 484.5c23.167 44.833 36.667 95.667 36.667 149.667 0 179.833-146 325.833-325.833 325.833s-325.833-145.833-325.833-325.833c0-179.833 146-325.833 325.833-325.833 54 0 104.833 13.333 149.5 36.667l176.333-176.167h93c0-0.167 0-93.167 0-93.167h93.167v-93.167l46.5-46.5h139.667v139.667l-409 408.833zM234.667 618.667c-58.833 0-106.667 47.667-106.667 106.667s47.833 106.667 106.667 106.667c59 0 106.667-47.667 106.667-106.667s-47.667-106.667-106.667-106.667z" />
<glyph unicode="&#xe90e;" glyph-name="Link" d="M602.267 195.898c-2.661-2.8-5.197-5.589-7.859-8.25-45.535-45.55-91.080-91.089-136.631-136.617-13.105-13.101-26.085-26.328-39.393-39.218-35.354-34.25-77.042-57.572-124.836-68.847-44.593-10.516-89.157-9.493-132.933 5.6-65.744 22.662-112.626 66.034-141.204 129.154-11.363 25.101-17.008 51.644-18.866 79.282-2.176 32.302 2.219 63.57 12.226 94.006 14.822 45.089 40.942 83.053 74.592 116.362 62.95 62.314 125.433 125.103 188.049 187.754 28.64 28.656 61.347 51.163 99.337 65.491 45.445 17.136 92.244 21.531 139.932 12.271 45.274-8.79 84.746-29.508 117.553-61.951 19.547-19.331 25.507-43.146 15.704-69.097-9.926-26.276-30.487-39.926-58.184-41.578-19.322-1.15-35.403 7.523-49.367 20.438-26.709 24.692-58.468 31.624-93.63 26.453-31.22-4.591-56.852-19.982-78.786-41.811-62.622-62.33-124.896-125.008-187.523-187.328-19.1-19.008-35.728-39.378-44.94-65.217-21.397-60.032 7.245-123.117 66.723-142.603 24.563-8.050 49.677-6.799 74.462 2.048 23.836 8.508 43.297 23.129 60.899 40.618 34.622 34.397 69.075 68.967 103.45 103.607 3.594 3.622 5.96 3.893 10.186 0.752 15.587-11.571 34.060-16.447 52.525-20.758 21.85-5.101 44.075-7.876 66.558-5.6 10.455 1.055 20.798 3.245 31.958 5.041zM420.748 699.863c3.231 3.399 6.022 6.463 8.946 9.39 56.852 56.937 113.581 113.998 170.639 170.729 35.321 35.118 76.895 60.434 125.379 72.092 71.421 17.177 138.695 7.024 199.445-36.225 44.287-31.526 74.028-73.823 89.379-125.746 13.129-44.411 12.201-89.252-0.323-133.788-14.393-51.18-43.25-93.238-80.832-130.263-60.533-59.636-120.474-119.88-180.388-180.138-27.525-27.687-57.874-51.136-94.099-66.283-42.087-17.594-85.693-24.372-131.235-19.054-44.279 5.168-83.796 21.45-118.551 49.107-12.134 9.656-24.153 19.523-31.299 34.15-17.111 35.026 1.489 77.86 38.962 89.046 24.343 7.268 45.901 1.62 63.864-15.378 23.7-22.421 51.871-31.553 83.598-30.050 26.817 1.272 51.966 9.93 72.197 27.513 25.027 21.745 48.445 45.387 72.021 68.752 46.384 45.971 92.26 92.454 138.619 138.452 21.97 21.8 38.929 46.372 45.345 77.111 12.104 57.992-19.762 113.003-76.584 128.438-30.656 8.329-59.868 2.607-87.732-11.981-15.617-8.177-28.925-19.285-41.284-31.559-34.15-33.924-68.18-67.971-101.99-102.232-5.029-5.098-8.477-5.893-14.67-1.568-16.227 11.33-35.289 15.999-54.239 20.215-21.457 4.767-43.264 7.464-65.274 4.943-9.714-1.112-19.268-3.611-29.893-5.673z" />
<glyph unicode="&#xe90f;" glyph-name="Linkedin" d="M298.667 874.667h426.667c117.821 0 213.333-95.513 213.333-213.333v-426.667c0-117.821-95.513-213.333-213.333-213.333h-426.667c-117.821 0-213.333 95.513-213.333 213.333v426.667c0 117.821 95.513 213.333 213.333 213.333zM310.399 710.826c-34.397 0-62.201-27.885-62.201-62.255 0-34.33 27.804-62.215 62.201-62.215 34.303 0 62.188 27.885 62.188 62.215 0 34.37-27.885 62.255-62.188 62.255zM256.72 193.865h107.358v345.31h-107.358v-345.31zM431.385 539.176v-345.31h107.278v170.806c0 45.036 8.522 88.693 64.372 88.693 55.059 0 55.77-51.508 55.77-91.56v-167.939h107.278v189.391c0 92.981-20.059 164.481-128.744 164.481-52.205 0-87.219-28.622-101.543-55.783h-1.474v47.221h-102.937z" />
<glyph unicode="&#xe910;" glyph-name="Location" d="M645.072 92.082c-7.76-9.664-16.55-18.453-26.213-26.213-73.494-59.017-180.915-47.281-239.931 26.213-167.285 208.321-250.928 369.627-250.928 483.918 0 212.077 171.923 384 384 384s384-171.923 384-384c0-114.291-83.643-275.597-250.928-483.918zM508.401 661.268c-49.147-1.828-84.051-44.212-81.614-89.493 2.361-43.86 39.203-82.786 88.773-81.053 44.872 1.571 82.876 40.8 81.749 84.884-1.282 50.083-39.53 87.499-88.908 85.662z" />
<glyph unicode="&#xe911;" glyph-name="Mining" d="M443.896 713.25c34.363-9.917 68.673-19.821 103.767-29.949-11.46-32.298-22.304-62.958-33.216-93.598-32.216-90.457-64.467-180.903-96.691-271.362-32.427-91.042-64.838-182.083-97.249-273.127-5.781-16.234-11.521-32.486-17.298-48.724-14.69-41.27-62.467-62.182-106.637-46.682-42.567 14.936-66.15 61.358-49.157 101.082 26.648 62.312 54.953 123.968 82.642 185.86 69.977 156.433 140.002 312.845 210.023 469.255 0.866 1.932 1.972 3.757 3.817 7.245zM323.45 868.033c3.524 19.984 6.896 39.99 10.616 59.935 3.148 16.882 14.113 25.584 32.617 24.905 54.114-1.984 106.92-11.797 158.618-27.774 99.026-30.598 184.165-82.339 255.527-154.413 66.658-67.326 113.172-145.463 140.507-233.553 2.438-7.849 2.712-14.74-5.468-19.386-8.096-4.601-13.972-0.015-20.006 4.799-37.695 30.056-74 61.925-113.571 89.556-74 51.671-155.446 90.378-242.24 118.549-62.883 20.416-127.167 34.371-192.903 41.947-6.118 0.704-12.402 1.662-18.142 3.72-13.819 4.96-20.74 16.306-18.491 30.302 3.317 20.642 7.18 41.192 10.811 61.786 0.71-0.125 1.417-0.25 2.127-0.375z" />
<glyph unicode="&#xe912;" d="M0 960h853.333c94.257 0 170.667-76.41 170.667-170.667v-853.333h-1024v1024z" />
<glyph unicode="&#xe913;" d="M409.6 311.467l204.8 136.533-204.8 136.533z" />
<glyph unicode="&#xe914;" glyph-name="Rond" d="M1024 448c0-282.77-229.23-512-512-512s-512 229.23-512 512c0 282.77 229.23 512 512 512s512-229.23 512-512z" />
<glyph unicode="&#xe915;" glyph-name="Search" d="M958.361 112.571l-203.921 203.917c-1.084 1.084-2.355 1.841-3.487 2.85 40.125 60.866 63.544 133.725 63.544 212.077 0 213.138-172.781 385.919-385.915 385.919s-385.915-172.781-385.915-385.915c0-213.13 172.777-385.915 385.911-385.915 78.356 0 151.211 23.419 212.077 63.544 1.009-1.129 1.762-2.4 2.846-3.484l203.924-203.924c30.634-30.63 80.298-30.63 110.936 0 30.63 30.634 30.63 80.298 0 110.932zM433.78 252.444c-151.207 0-273.78 122.573-273.78 273.776 0 151.207 122.577 273.78 273.78 273.78 151.199 0 273.776-122.577 273.776-273.78s-122.577-273.776-273.776-273.776z" />
<glyph unicode="&#xe916;" glyph-name="Share-Link" d="M827.077 960c-108.769 0-196.923-88.154-196.923-196.923 0-3.385 1.077-6.462 1.231-9.846l-308.923-155.077c-34.154 28.769-77.385 46.769-125.538 46.769-108.769 0-196.923-88.154-196.923-196.923s88.154-196.923 196.923-196.923c48.154 0 91.385 18 125.538 46.769l308.923-155.077c-0.154-3.385-1.231-6.462-1.231-9.846 0-108.769 88.154-196.923 196.923-196.923s196.923 88.154 196.923 196.923c0 108.769-88.154 196.923-196.923 196.923-48.154 0-91.385-18-125.538-46.769l-308.923 155.077c0.154 3.385 1.231 6.462 1.231 9.846s-1.077 6.462-1.231 9.846l308.923 155.077c34.154-28.769 77.385-46.769 125.538-46.769 108.769 0 196.923 88.154 196.923 196.923s-88.154 196.923-196.923 196.923z" />
<glyph unicode="&#xe917;" glyph-name="sliderArrow" d="M512 960c282.77 0 512-229.23 512-512s-229.23-512-512-512c-282.77 0-512 229.23-512 512s229.23 512 512 512zM627.482 422.135l-195.674-195.639 60.331-60.373 301.739 301.696-301.739 301.696-60.331-60.331 201.715-201.715h-397.342v-85.333h391.301z" />
<glyph unicode="&#xe918;" glyph-name="Twitter" d="M337.866 64c354.232 0 547.947 295.441 547.947 551.637 0 8.392-0.17 16.745-0.544 25.061 37.603 27.367 70.286 61.519 96.064 100.396-34.507-15.441-71.64-25.836-110.594-30.523 39.76 24.003 70.286 61.972 84.687 107.236-37.209-22.207-78.415-38.348-122.29-47.062-35.143 37.685-85.175 61.255-140.574 61.255-106.351 0-192.594-86.827-192.594-193.853 0-15.214 1.69-30.013 4.994-44.208-160.059 8.108-301.988 85.257-396.975 202.567-16.539-28.652-26.076-61.934-26.076-97.447 0-67.264 33.999-126.646 85.701-161.385-31.596 0.983-61.277 9.715-87.219 24.248-0.028-0.813-0.028-1.606-0.028-2.476 0-93.895 66.383-172.29 154.503-190.054-16.183-4.441-33.209-6.823-50.782-6.823-12.39 0-24.462 1.228-36.195 3.496 24.518-77.035 95.614-133.092 179.903-134.659-65.914-52.012-148.947-82.99-239.19-82.99-15.526 0-30.863 0.889-45.937 2.684 85.232-54.999 186.436-87.090 295.21-87.090z" />
<glyph unicode="&#xe919;" glyph-name="Youtube" d="M980.48 757.993c-27.776 53.9-57.92 63.814-119.296 67.584-61.312 4.538-215.488 6.423-349.056 6.423-133.824 0-288.064-1.885-349.312-6.353-61.248-3.84-91.456-13.684-119.488-67.654-28.608-53.83-43.328-146.548-43.328-309.783 0-0.14 0-0.209 0-0.209 0-0.14 0-0.209 0-0.209v-0.14c0-162.537 14.72-255.953 43.328-309.225 28.032-53.9 58.176-63.674 119.424-68.212 61.312-3.91 215.552-6.214 349.376-6.214 133.568 0 287.744 2.304 349.12 6.144 61.376 4.538 91.52 14.313 119.296 68.212 28.864 53.271 43.456 146.688 43.456 309.225 0 0 0 0.209 0 0.349 0 0 0 0.14 0 0.209 0 163.305-14.592 256.023-43.52 309.853zM384 245.333v384l320-192-320-192z" />
</font>
</defs>
</svg>
